<svg width="376" height="457" viewBox="0 0 376 457" fill="none" xmlns="http://www.w3.org/2000/svg">
<line x1="9" y1="92" x2="9" y2="372" stroke="#e05928" stroke-width="18"/>
<line x1="190.867" y1="9.085" x2="3.95384" y2="100.492" stroke="#e05928" stroke-width="18"/>
<line x1="371.867" y1="356.085" x2="184.954" y2="447.492" stroke="#e05928" stroke-width="18"/>
<line x1="181.66" y1="8.77764" x2="371.749" y2="93.3826" stroke="#e05928" stroke-width="18"/>
<line x1="3.65962" y1="363.778" x2="193.749" y2="448.383" stroke="#e05928" stroke-width="18"/>
<line x1="367" y1="84" x2="367" y2="364" stroke="#e05928" stroke-width="18"/>
<path d="M297.032 392.051C296.591 368.228 292.233 352.098 286.5 330.187C280.767 308.276 272.59 288.422 262.437 271.759C252.284 255.095 240.354 241.949 227.327 233.07C214.3 224.191 200.432 219.754 186.514 220.011C172.596 220.269 158.901 225.216 146.212 234.57C133.522 243.925 122.086 257.504 112.556 274.531C103.026 291.558 95.5899 311.701 90.6709 333.809C85.7519 355.917 81.5915 368.228 82.0321 392.051L186.514 438.551L297.032 392.051Z" fill="#e05928"/>
<path d="M183.5 209C219.675 209 249 180.57 249 145.5C249 110.43 219.675 82 183.5 82C147.325 82 118 110.43 118 145.5C118 180.57 147.325 209 183.5 209Z" fill="#e05928"/>
<path d="M293.42 171.46L282.462 167.86C283.741 164.102 285.088 161.129 286.503 158.94C287.971 156.724 289.78 154.86 291.931 153.347C294.082 151.834 296.813 150.208 300.127 148.468C302.54 147.216 304.757 146.03 306.779 144.91C308.853 143.764 310.671 142.403 312.233 140.828C313.808 139.213 315.034 137.07 315.911 134.4C316.802 131.69 317.079 129.191 316.742 126.905C316.445 124.631 315.528 122.655 313.991 120.975C312.494 119.308 310.37 118.023 307.621 117.119C305.343 116.371 303.047 116.073 300.734 116.227C298.421 116.381 296.352 117.115 294.527 118.43C292.715 119.706 291.338 121.712 290.396 124.449L279.497 120.867C281.034 116.455 283.385 113.007 286.551 110.522C289.757 108.051 293.463 106.571 297.671 106.082C301.878 105.593 306.241 106.091 310.757 107.575C315.745 109.214 319.69 111.512 322.592 114.467C325.533 117.435 327.371 120.911 328.108 124.895C328.856 128.84 328.476 133.11 326.966 137.706C325.804 141.24 324.007 144.261 321.573 146.769C319.191 149.25 316.455 151.419 313.364 153.275C310.274 155.132 307.085 156.825 303.797 158.356C300.978 159.649 298.783 161.43 297.211 163.698C295.639 165.967 294.375 168.554 293.42 171.46ZM275.854 186.38C276.435 184.613 277.475 183.301 278.975 182.445C280.475 181.589 282.266 181.503 284.347 182.187C286.468 182.883 287.878 184.021 288.578 185.6C289.278 187.179 289.337 188.852 288.756 190.62C288.201 192.308 287.174 193.581 285.674 194.437C284.174 195.293 282.364 195.373 280.243 194.676C278.162 193.992 276.771 192.861 276.071 191.282C275.372 189.703 275.299 188.069 275.854 186.38Z" fill="#e05928"/>
</svg>
