<svg width="376" height="457" viewBox="0 0 376 457" fill="none" xmlns="http://www.w3.org/2000/svg">
<line x1="9" y1="92" x2="9" y2="372" stroke="#000000" stroke-width="18"/>
<line x1="190.867" y1="9.085" x2="3.95384" y2="100.492" stroke="#000000" stroke-width="18"/>
<line x1="371.867" y1="356.085" x2="184.954" y2="447.492" stroke="#000000" stroke-width="18"/>
<line x1="181.66" y1="8.77764" x2="371.749" y2="93.3826" stroke="#000000" stroke-width="18"/>
<line x1="3.65962" y1="363.778" x2="193.749" y2="448.383" stroke="#000000" stroke-width="18"/>
<line x1="367" y1="84" x2="367" y2="364" stroke="#000000" stroke-width="18"/>
<g filter="url(#filter0_d_6_8)">
<rect x="57.5" y="131.5" width="260" height="209" rx="9.5" stroke="#000000" stroke-width="15" shape-rendering="crispEdges"/>
</g>
<path d="M203 124V131.5H210.5V124C210.5 117.782 206.827 112.973 202.563 110.042C198.265 107.087 192.74 105.5 187 105.5C181.26 105.5 175.735 107.087 171.437 110.042C167.173 112.973 163.5 117.782 163.5 124V131.5H171V124L171 131.5H171H171.001H171.001H171.002H171.003H171.004H171.005H171.007H171.008H171.01H171.012H171.014H171.016H171.018H171.021H171.023H171.026H171.029H171.032H171.036H171.039H171.043H171.047H171.051H171.055H171.059H171.063H171.068H171.073H171.078H171.083H171.088H171.093H171.099H171.104H171.11H171.116H171.122H171.129H171.135H171.142H171.148H171.155H171.162H171.169H171.177H171.184H171.192H171.2H171.208H171.216H171.224H171.233H171.241H171.25H171.259H171.268H171.277H171.286H171.296H171.305H171.315H171.325H171.335H171.345H171.356H171.366H171.377H171.388H171.399H171.41H171.421H171.432H171.444H171.456H171.467H171.479H171.491H171.504H171.516H171.529H171.541H171.554H171.567H171.58H171.594H171.607H171.621H171.634H171.648H171.662H171.676H171.69H171.705H171.719H171.734H171.749H171.764H171.779H171.794H171.81H171.825H171.841H171.856H171.872H171.888H171.905H171.921H171.938H171.954H171.971H171.988H172.005H172.022H172.039H172.057H172.074H172.092H172.11H172.128H172.146H172.164H172.183H172.201H172.22H172.238H172.257H172.276H172.296H172.315H172.334H172.354H172.374H172.393H172.413H172.433H172.454H172.474H172.495H172.515H172.536H172.557H172.578H172.599H172.62H172.642H172.663H172.685H172.706H172.728H172.75H172.773H172.795H172.817H172.84H172.862H172.885H172.908H172.931H172.954H172.978H173.001H173.024H173.048H173.072H173.096H173.12H173.144H173.168H173.193H173.217H173.242H173.267H173.291H173.316H173.341H173.367H173.392H173.418H173.443H173.469H173.495H173.521H173.547H173.573H173.599H173.626H173.652H173.679H173.706H173.733H173.76H173.787H173.814H173.841H173.869H173.896H173.924H173.952H173.98H174.008H174.036H174.064H174.093H174.121H174.15H174.179H174.207H174.236H174.266H174.295H174.324H174.353H174.383H174.413H174.442H174.472H174.502H174.532H174.562H174.593H174.623H174.654H174.684H174.715H174.746H174.777H174.808H174.839H174.87H174.902H174.933H174.965H174.996H175.028H175.06H175.092H175.124H175.157H175.189H175.221H175.254H175.286H175.319H175.352H175.385H175.418H175.451H175.485H175.518H175.551H175.585H175.619H175.652H175.686H175.72H175.754H175.789H175.823H175.857H175.892H175.926H175.961H175.996H176.031H176.066H176.101H176.136H176.171H176.206H176.242H176.278H176.313H176.349H176.385H176.421H176.457H176.493H176.529H176.566H176.602H176.638H176.675H176.712H176.749H176.786H176.823H176.86H176.897H176.934H176.971H177.009H177.046H177.084H177.122H177.16H177.198H177.236H177.274H177.312H177.35H177.388H177.427H177.465H177.504H177.543H177.582H177.621H177.66H177.699H177.738H177.777H177.816H177.856H177.895H177.935H177.975H178.014H178.054H178.094H178.134H178.174H178.215H178.255H178.295H178.336H178.376H178.417H178.457H178.498H178.539H178.58H178.621H178.662H178.703H178.745H178.786H178.827H178.869H178.911H178.952H178.994H179.036H179.078H179.12H179.162H179.204H179.246H179.289H179.331H179.373H179.416H179.459H179.501H179.544H179.587H179.63H179.673H179.716H179.759H179.802H179.846H179.889H179.933H179.976H180.02H180.063H180.107H180.151H180.195H180.239H180.283H180.327H180.371H180.415H180.46H180.504H180.549H180.593H180.638H180.682H180.727H180.772H180.817H180.862H180.907H180.952H180.997H181.043H181.088H181.133H181.179H181.224H181.27H181.315H181.361H181.407H181.453H181.499H181.545H181.591H181.637H181.683H181.729H181.776H181.822H181.868H181.915H181.961H182.008H182.055H182.101H182.148H182.195H182.242H182.289H182.336H182.383H182.43H182.478H182.525H182.572H182.62H182.667H182.715H182.762H182.81H182.858H182.906H182.953H183.001H183.049H183.097H183.145H183.194H183.242H183.29H183.338H183.387H183.435H183.483H183.532H183.581H183.629H183.678H183.727H183.775H183.824H183.873H183.922H183.971H184.02H184.069H184.119H184.168H184.217H184.266H184.316H184.365H184.415H184.464H184.514H184.563H184.613H184.663H184.713H184.762H184.812H184.862H184.912H184.962H185.012H185.062H185.113H185.163H185.213H185.263H185.314H185.364H185.415H185.465H185.516H185.566H185.617H185.667H185.718H185.769H185.82H185.871H185.922H185.972H186.023H186.074H186.126H186.177H186.228H186.279H186.33H186.382H186.433H186.484H186.536H186.587H186.639H186.69H186.742H186.793H186.845H186.897H186.948H187H187.052H187.103H187.155H187.207H187.258H187.31H187.361H187.413H187.464H187.516H187.567H187.618H187.67H187.721H187.772H187.823H187.874H187.926H187.977H188.028H188.078H188.129H188.18H188.231H188.282H188.333H188.383H188.434H188.484H188.535H188.585H188.636H188.686H188.737H188.787H188.837H188.887H188.938H188.988H189.038H189.088H189.138H189.188H189.238H189.287H189.337H189.387H189.437H189.486H189.536H189.585H189.635H189.684H189.734H189.783H189.832H189.881H189.931H189.98H190.029H190.078H190.127H190.176H190.225H190.273H190.322H190.371H190.419H190.468H190.517H190.565H190.613H190.662H190.71H190.758H190.806H190.855H190.903H190.951H190.999H191.047H191.094H191.142H191.19H191.238H191.285H191.333H191.38H191.428H191.475H191.522H191.57H191.617H191.664H191.711H191.758H191.805H191.852H191.899H191.945H191.992H192.039H192.085H192.132H192.178H192.224H192.271H192.317H192.363H192.409H192.455H192.501H192.547H192.593H192.639H192.685H192.73H192.776H192.821H192.867H192.912H192.957H193.003H193.048H193.093H193.138H193.183H193.228H193.273H193.318H193.362H193.407H193.451H193.496H193.54H193.585H193.629H193.673H193.717H193.761H193.805H193.849H193.893H193.937H193.98H194.024H194.067H194.111H194.154H194.198H194.241H194.284H194.327H194.37H194.413H194.456H194.499H194.541H194.584H194.627H194.669H194.711H194.754H194.796H194.838H194.88H194.922H194.964H195.006H195.048H195.089H195.131H195.173H195.214H195.255H195.297H195.338H195.379H195.42H195.461H195.502H195.543H195.583H195.624H195.664H195.705H195.745H195.785H195.826H195.866H195.906H195.946H195.986H196.025H196.065H196.105H196.144H196.184H196.223H196.262H196.301H196.34H196.379H196.418H196.457H196.496H196.535H196.573H196.612H196.65H196.688H196.726H196.764H196.802H196.84H196.878H196.916H196.954H196.991H197.029H197.066H197.103H197.14H197.177H197.214H197.251H197.288H197.325H197.362H197.398H197.434H197.471H197.507H197.543H197.579H197.615H197.651H197.687H197.722H197.758H197.794H197.829H197.864H197.899H197.934H197.969H198.004H198.039H198.074H198.108H198.143H198.177H198.211H198.246H198.28H198.314H198.348H198.381H198.415H198.449H198.482H198.515H198.549H198.582H198.615H198.648H198.681H198.714H198.746H198.779H198.811H198.843H198.876H198.908H198.94H198.972H199.004H199.035H199.067H199.098H199.13H199.161H199.192H199.223H199.254H199.285H199.316H199.346H199.377H199.407H199.438H199.468H199.498H199.528H199.558H199.587H199.617H199.647H199.676H199.705H199.734H199.764H199.793H199.821H199.85H199.879H199.907H199.936H199.964H199.992H200.02H200.048H200.076H200.104H200.131H200.159H200.186H200.213H200.24H200.267H200.294H200.321H200.348H200.374H200.401H200.427H200.453H200.479H200.505H200.531H200.557H200.582H200.608H200.633H200.659H200.684H200.709H200.733H200.758H200.783H200.807H200.832H200.856H200.88H200.904H200.928H200.952H200.976H200.999H201.022H201.046H201.069H201.092H201.115H201.138H201.16H201.183H201.205H201.227H201.25H201.272H201.294H201.315H201.337H201.358H201.38H201.401H201.422H201.443H201.464H201.485H201.505H201.526H201.546H201.567H201.587H201.607H201.626H201.646H201.666H201.685H201.704H201.724H201.743H201.762H201.78H201.799H201.817H201.836H201.854H201.872H201.89H201.908H201.926H201.943H201.961H201.978H201.995H202.012H202.029H202.046H202.062H202.079H202.095H202.112H202.128H202.144H202.159H202.175H202.19H202.206H202.221H202.236H202.251H202.266H202.281H202.295H202.31H202.324H202.338H202.352H202.366H202.379H202.393H202.406H202.42H202.433H202.446H202.459H202.471H202.484H202.496H202.509H202.521H202.533H202.544H202.556H202.568H202.579H202.59H202.601H202.612H202.623H202.634H202.644H202.655H202.665H202.675H202.685H202.695H202.704H202.714H202.723H202.732H202.741H202.75H202.759H202.767H202.776H202.784H202.792H202.8H202.808H202.816H202.823H202.831H202.838H202.845H202.852H202.858H202.865H202.871H202.878H202.884H202.89H202.896H202.901H202.907H202.912H202.917H202.922H202.927H202.932H202.937H202.941H202.945H202.949H202.953H202.957H202.961H202.964H202.968H202.971H202.974H202.977H202.979H202.982H202.984H202.986H202.988H202.99H202.992H202.993H202.995H202.996H202.997H202.998H202.999H202.999H203H203L203 124Z" stroke="#000000" stroke-width="15"/>
<line x1="94.5376" y1="170.538" x2="279.535" y2="171.467" stroke="#000000" stroke-width="15" stroke-linecap="round"/>
<line x1="94.5376" y1="283.538" x2="179.537" y2="283.965" stroke="#000000" stroke-width="15" stroke-linecap="round"/>
<line x1="94.5376" y1="228.538" x2="279.535" y2="229.467" stroke="#000000" stroke-width="15" stroke-linecap="round"/>
<defs>
<filter id="filter0_d_6_8" x="46" y="124" width="283" height="232" filterUnits="userSpaceOnUse" color-interpolation-filters="sRGB">
<feFlood flood-opacity="0" result="BackgroundImageFix"/>
<feColorMatrix in="SourceAlpha" type="matrix" values="0 0 0 0 0 0 0 0 0 0 0 0 0 0 0 0 0 0 127 0" result="hardAlpha"/>
<feOffset dy="4"/>
<feGaussianBlur stdDeviation="2"/>
<feComposite in2="hardAlpha" operator="out"/>
<feColorMatrix type="matrix" values="0 0 0 0 0 0 0 0 0 0 0 0 0 0 0 0 0 0 0.25 0"/>
<feBlend mode="normal" in2="BackgroundImageFix" result="effect1_dropShadow_6_8"/>
<feBlend mode="normal" in="SourceGraphic" in2="effect1_dropShadow_6_8" result="shape"/>
</filter>
</defs>
</svg>
