<svg width="376" height="457" viewBox="0 0 376 457" fill="none" xmlns="http://www.w3.org/2000/svg">
<line x1="9" y1="92" x2="9" y2="372" stroke="#e05928" stroke-width="18"/>
<line x1="190.867" y1="9.085" x2="3.95384" y2="100.492" stroke="#e05928" stroke-width="18"/>
<line x1="371.867" y1="356.085" x2="184.954" y2="447.492" stroke="#e05928" stroke-width="18"/>
<line x1="181.66" y1="8.77764" x2="371.749" y2="93.3826" stroke="#e05928" stroke-width="18"/>
<line x1="3.65962" y1="363.778" x2="193.749" y2="448.383" stroke="#e05928" stroke-width="18"/>
<line x1="367" y1="84" x2="367" y2="364" stroke="#e05928" stroke-width="18"/>
<ellipse cx="186.5" cy="147.5" rx="65.5" ry="63.5" fill="#e05928"/>
<path d="M294.5 394C294.059 370.177 289.701 354.047 283.968 332.136C278.235 310.225 270.058 290.371 259.905 273.708C249.752 257.044 237.822 243.898 224.795 235.019C211.768 226.14 197.9 221.703 183.982 221.96C170.064 222.218 156.369 227.165 143.68 236.519C130.99 245.874 119.554 259.453 110.024 276.48C100.494 293.507 93.0578 313.65 88.1388 335.758C83.2198 357.866 79.0594 370.177 79.5 394L183.982 440.5L294.5 394Z" fill="#e05928"/>
</svg>
